<?xml version="1.0" encoding="utf-8"?>
<!-- Generator: Adobe Illustrator 16.0.0, SVG Export Plug-In . SVG Version: 6.00 Build 0)  -->
<!DOCTYPE svg PUBLIC "-//W3C//DTD SVG 1.1//EN" "http://www.w3.org/Graphics/SVG/1.1/DTD/svg11.dtd">
<svg version="1.1" id="Layer_1" xmlns="http://www.w3.org/2000/svg" xmlns:xlink="http://www.w3.org/1999/xlink" x="0px" y="0px"
	 width="248.199px" height="80.873px" viewBox="0 0 248.199 80.873" enable-background="new 0 0 248.199 80.873"
	 xml:space="preserve">
<path fill="#89B9E0" d="M55.595,38.748c-0.685,0.458-1.622,0.29-2.094-0.377c-0.471-0.666-0.298-1.578,0.387-2.037
	c0.685-0.458,1.623-0.29,2.094,0.377C56.454,37.378,56.281,38.29,55.595,38.748z"/>
<path fill="#D17363" d="M37.858,2.399c-0.615,0.412-1.457,0.26-1.88-0.338c-0.423-0.599-0.267-1.417,0.348-1.829
	c0.615-0.412,1.458-0.26,1.88,0.338C38.629,1.168,38.473,1.987,37.858,2.399z"/>
<path fill="#C85248" d="M42.753,7.046c-0.685,0.458-1.623,0.29-2.094-0.376s-0.298-1.579,0.387-2.037
	c0.685-0.459,1.623-0.29,2.094,0.376C43.612,5.675,43.438,6.587,42.753,7.046z"/>
<path fill="#645C8A" d="M47.633,12.417c-0.742,0.699-1.926,0.68-2.645-0.042s-0.7-1.873,0.042-2.572s1.926-0.681,2.645,0.042
	C48.395,10.566,48.375,11.718,47.633,12.417z"/>
<path fill="#56A3D5" d="M58.043,33.216c-0.742,0.699-1.926,0.68-2.645-0.042c-0.718-0.722-0.7-1.873,0.042-2.573
	c0.742-0.699,1.926-0.68,2.645,0.042S58.786,32.517,58.043,33.216z"/>
<path fill="#2073AE" d="M56.867,27.053c-1.187,0.794-2.811,0.502-3.627-0.652c-0.816-1.154-0.517-2.733,0.67-3.527
	c1.187-0.794,2.811-0.502,3.627,0.652C58.354,24.679,58.054,26.259,56.867,27.053z"/>
<path fill="#264983" d="M53.285,20.429c-1.548,1.036-3.666,0.655-4.73-0.851c-1.065-1.505-0.673-3.565,0.875-4.601
	c1.548-1.035,3.666-0.654,4.73,0.851C55.224,17.333,54.833,19.393,53.285,20.429z"/>
<path fill="#89B9E0" d="M53.191,33.084c-0.358,0.73-1.257,1.04-2.007,0.692c-0.75-0.348-1.069-1.222-0.711-1.952
	c0.357-0.73,1.256-1.041,2.007-0.692C53.23,31.48,53.549,32.354,53.191,33.084z"/>
<path fill="#D17363" d="M19.143,10.23c-0.321,0.655-1.128,0.934-1.802,0.621c-0.674-0.312-0.96-1.097-0.64-1.752
	c0.322-0.656,1.128-0.934,1.802-0.622C19.178,8.79,19.464,9.575,19.143,10.23z"/>
<path fill="#C85248" d="M25.771,11.875c-0.357,0.73-1.256,1.04-2.007,0.692s-1.07-1.222-0.712-1.952s1.257-1.04,2.007-0.692
	C25.81,10.27,26.129,11.144,25.771,11.875z"/>
<path fill="#645C8A" d="M32.759,14.152c-0.284,0.966-1.319,1.526-2.312,1.251c-0.994-0.276-1.569-1.283-1.286-2.249
	c0.283-0.966,1.318-1.526,2.312-1.25C32.466,12.18,33.042,13.186,32.759,14.152z"/>
<path fill="#56A3D5" d="M52.467,27.103c-0.283,0.966-1.318,1.526-2.312,1.25c-0.993-0.275-1.568-1.282-1.286-2.248
	c0.284-0.966,1.319-1.526,2.312-1.25C52.175,25.13,52.75,26.137,52.467,27.103z"/>
<path fill="#2073AE" d="M48.28,22.337c-0.62,1.265-2.177,1.802-3.477,1.2c-1.3-0.603-1.853-2.117-1.233-3.382
	c0.62-1.265,2.176-1.801,3.476-1.199C48.347,19.559,48.899,21.073,48.28,22.337z"/>
<path fill="#264983" d="M41.771,18.343c-0.808,1.649-2.838,2.35-4.534,1.563c-1.696-0.786-2.416-2.76-1.608-4.409
	c0.808-1.649,2.838-2.35,4.534-1.564C41.86,14.72,42.58,16.694,41.771,18.343z"/>
<path fill="#89B9E0" d="M47.467,28.963c0.066,0.806-0.553,1.512-1.382,1.576c-0.829,0.063-1.554-0.538-1.62-1.345
	c-0.065-0.806,0.554-1.512,1.382-1.576C46.676,27.555,47.402,28.157,47.467,28.963z"/>
<path fill="#D17363" d="M6.231,25.728c0.06,0.725-0.497,1.357-1.241,1.415c-0.744,0.057-1.396-0.483-1.454-1.208
	c-0.06-0.724,0.496-1.357,1.241-1.415S6.172,25.003,6.231,25.728z"/>
<path fill="#C85248" d="M12.817,23.928c0.065,0.807-0.553,1.512-1.382,1.576c-0.829,0.064-1.554-0.538-1.62-1.344
	c-0.065-0.807,0.553-1.512,1.382-1.576S12.751,23.122,12.817,23.928z"/>
<path fill="#645C8A" d="M20.039,22.503c0.251,0.975-0.357,1.963-1.359,2.208c-1.002,0.244-2.018-0.348-2.27-1.322
	s0.357-1.963,1.359-2.207C18.771,20.937,19.788,21.529,20.039,22.503z"/>
<path fill="#56A3D5" d="M43.765,24.135c0.251,0.975-0.357,1.963-1.359,2.208c-1.002,0.244-2.018-0.348-2.27-1.322
	c-0.251-0.975,0.357-1.962,1.359-2.207S43.514,23.16,43.765,24.135z"/>
<path fill="#2073AE" d="M37.689,22.044c0.113,1.396-0.958,2.618-2.395,2.729c-1.436,0.11-2.692-0.932-2.806-2.329
	s0.958-2.619,2.395-2.729S37.575,20.648,37.689,22.044z"/>
<path fill="#264983" d="M29.999,21.75c0.148,1.821-1.25,3.415-3.123,3.559c-1.873,0.145-3.511-1.215-3.659-3.037
	c-0.148-1.822,1.25-3.415,3.123-3.559S29.851,19.929,29.999,21.75z"/>
<path fill="#89B9E0" d="M40.97,28.38c0.472,0.667,0.298,1.578-0.387,2.037c-0.685,0.458-1.622,0.29-2.094-0.377
	c-0.471-0.666-0.298-1.578,0.387-2.037C39.561,27.545,40.499,27.714,40.97,28.38z"/>
<path fill="#D17363" d="M3.595,45.631c0.423,0.599,0.268,1.417-0.348,1.829s-1.457,0.26-1.88-0.338S1.1,45.705,1.715,45.293
	S3.172,45.033,3.595,45.631z"/>
<path fill="#C85248" d="M8.374,40.87c0.471,0.667,0.298,1.579-0.387,2.037c-0.686,0.458-1.623,0.29-2.094-0.376
	c-0.471-0.667-0.298-1.578,0.387-2.037S7.902,40.204,8.374,40.87z"/>
<path fill="#645C8A" d="M13.896,36.124c0.718,0.722,0.699,1.874-0.043,2.573c-0.742,0.699-1.926,0.68-2.645-0.042
	c-0.719-0.722-0.7-1.874,0.042-2.572C11.993,35.384,13.177,35.402,13.896,36.124z"/>
<path fill="#56A3D5" d="M35.281,26c0.719,0.722,0.7,1.874-0.042,2.573c-0.742,0.699-1.926,0.68-2.645-0.042s-0.7-1.874,0.042-2.573
	C33.378,25.259,34.563,25.278,35.281,26z"/>
<path fill="#2073AE" d="M28.945,27.144c0.816,1.155,0.517,2.734-0.67,3.528s-2.811,0.502-3.627-0.652
	c-0.816-1.154-0.516-2.734,0.671-3.528C26.504,25.698,28.128,25.99,28.945,27.144z"/>
<path fill="#264983" d="M22.134,30.628c1.065,1.505,0.673,3.565-0.875,4.601c-1.548,1.036-3.666,0.655-4.73-0.851
	c-1.064-1.505-0.673-3.565,0.875-4.601S21.069,29.123,22.134,30.628z"/>
<path fill="#89B9E0" d="M34.844,31.191c0.755,0.339,1.084,1.209,0.735,1.944c-0.349,0.734-1.243,1.055-1.998,0.715
	c-0.755-0.339-1.085-1.209-0.736-1.943C33.194,31.173,34.089,30.853,34.844,31.191z"/>
<path fill="#D17363" d="M11.753,64.576c0.678,0.305,0.974,1.086,0.661,1.746c-0.313,0.659-1.117,0.947-1.794,0.642
	c-0.679-0.305-0.974-1.086-0.661-1.745C10.272,64.56,11.076,64.271,11.753,64.576z"/>
<path fill="#C85248" d="M13.365,58.11c0.755,0.34,1.084,1.209,0.736,1.944c-0.349,0.735-1.244,1.055-1.999,0.716
	c-0.755-0.339-1.084-1.209-0.735-1.944C11.715,58.092,12.61,57.772,13.365,58.11z"/>
<path fill="#645C8A" d="M15.624,51.289c0.997,0.264,1.585,1.264,1.313,2.233c-0.271,0.97-1.3,1.542-2.297,1.278
	c-0.997-0.264-1.584-1.264-1.313-2.234C13.599,51.596,14.627,51.024,15.624,51.289z"/>
<path fill="#56A3D5" d="M28.703,31.967c0.997,0.264,1.585,1.264,1.313,2.233s-1.3,1.541-2.296,1.277
	c-0.997-0.264-1.584-1.264-1.313-2.233C26.678,32.275,27.706,31.703,28.703,31.967z"/>
<path fill="#2073AE" d="M23.854,36.097c1.308,0.587,1.878,2.094,1.274,3.366s-2.154,1.827-3.461,1.239
	c-1.308-0.587-1.878-2.095-1.274-3.366C20.996,36.064,22.546,35.509,23.854,36.097z"/>
<path fill="#264983" d="M19.825,42.473c1.705,0.767,2.449,2.732,1.662,4.391s-2.809,2.382-4.514,1.616s-2.45-2.732-1.662-4.391
	S18.119,41.707,19.825,42.473z"/>
<path fill="#89B9E0" d="M31.312,36.034c0.828-0.073,1.561,0.52,1.637,1.325c0.075,0.806-0.535,1.518-1.363,1.592
	c-0.828,0.073-1.561-0.521-1.636-1.326C29.874,36.82,30.484,36.107,31.312,36.034z"/>
<path fill="#D17363" d="M28.479,76.175c0.744-0.066,1.401,0.467,1.469,1.19c0.067,0.723-0.48,1.362-1.224,1.429
	c-0.744,0.066-1.402-0.467-1.47-1.19C27.187,76.881,27.735,76.241,28.479,76.175z"/>
<path fill="#C85248" d="M26.55,69.792c0.828-0.073,1.561,0.52,1.636,1.325c0.075,0.806-0.535,1.519-1.363,1.592
	c-0.829,0.073-1.561-0.521-1.637-1.326C25.112,70.578,25.722,69.865,26.55,69.792z"/>
<path fill="#645C8A" d="M24.999,62.785c0.999-0.256,2.022,0.324,2.286,1.296s-0.333,1.967-1.332,2.223
	c-0.999,0.256-2.022-0.324-2.285-1.296C23.403,64.037,24,63.041,24.999,62.785z"/>
<path fill="#56A3D5" d="M26.393,39.692c0.999-0.256,2.022,0.324,2.286,1.295c0.263,0.972-0.333,1.967-1.332,2.223
	c-0.999,0.255-2.022-0.324-2.286-1.296C24.797,40.944,25.394,39.948,26.393,39.692z"/>
<path fill="#2073AE" d="M24.316,45.626c1.435-0.127,2.704,0.901,2.834,2.296s-0.926,2.629-2.361,2.756
	c-1.435,0.127-2.704-0.901-2.834-2.296C21.825,46.987,22.881,45.753,24.316,45.626z"/>
<path fill="#264983" d="M24.104,53.108c1.871-0.166,3.526,1.174,3.697,2.994s-1.208,3.429-3.079,3.595
	c-1.871,0.166-3.526-1.175-3.697-2.995C20.855,54.883,22.234,53.274,24.104,53.108z"/>
<path fill="#89B9E0" d="M33.437,47.767c0.358-0.73,1.257-1.04,2.007-0.692c0.751,0.348,1.069,1.222,0.712,1.952
	c-0.358,0.73-1.256,1.04-2.007,0.692C33.397,49.371,33.079,48.497,33.437,47.767z"/>
<path fill="#D17363" d="M67.485,70.62c0.322-0.655,1.128-0.934,1.802-0.621c0.674,0.312,0.96,1.098,0.64,1.753
	c-0.322,0.655-1.128,0.934-1.802,0.621C67.45,72.061,67.164,71.276,67.485,70.62z"/>
<path fill="#C85248" d="M60.857,68.977c0.357-0.729,1.256-1.04,2.007-0.692c0.751,0.349,1.07,1.222,0.712,1.952
	s-1.256,1.04-2.007,0.692C60.818,70.581,60.499,69.707,60.857,68.977z"/>
<path fill="#645C8A" d="M53.869,66.698c0.284-0.966,1.319-1.525,2.312-1.25c0.994,0.275,1.569,1.282,1.286,2.249
	c-0.283,0.966-1.318,1.526-2.312,1.25C54.162,68.671,53.586,67.665,53.869,66.698z"/>
<path fill="#56A3D5" d="M34.161,53.748c0.283-0.966,1.318-1.526,2.312-1.25c0.993,0.276,1.569,1.283,1.286,2.249
	c-0.284,0.966-1.319,1.526-2.312,1.25C34.454,55.721,33.877,54.714,34.161,53.748z"/>
<path fill="#2073AE" d="M38.349,58.513c0.62-1.265,2.176-1.801,3.477-1.199s1.852,2.116,1.232,3.381s-2.176,1.801-3.476,1.199
	C38.281,61.292,37.729,59.778,38.349,58.513z"/>
<path fill="#264983" d="M44.856,62.508c0.808-1.65,2.838-2.35,4.534-1.564c1.696,0.786,2.416,2.76,1.608,4.41
	c-0.808,1.649-2.838,2.35-4.534,1.563C44.768,66.131,44.048,64.157,44.856,62.508z"/>
<path fill="#89B9E0" d="M38.627,51.635c-0.065-0.807,0.553-1.512,1.382-1.576s1.554,0.538,1.62,1.344
	c0.065,0.807-0.554,1.512-1.382,1.576C39.418,53.043,38.693,52.441,38.627,51.635z"/>
<path fill="#D17363" d="M79.864,54.87c-0.059-0.725,0.497-1.358,1.241-1.415c0.745-0.058,1.396,0.483,1.455,1.207
	c0.059,0.724-0.497,1.357-1.242,1.415C80.574,56.134,79.922,55.594,79.864,54.87z"/>
<path fill="#C85248" d="M73.278,56.669c-0.065-0.806,0.554-1.511,1.382-1.576c0.829-0.063,1.554,0.539,1.62,1.345
	c0.066,0.806-0.553,1.511-1.382,1.575C74.069,58.077,73.344,57.476,73.278,56.669z"/>
<path fill="#645C8A" d="M66.056,58.094c-0.251-0.975,0.357-1.962,1.359-2.207c1.001-0.245,2.018,0.348,2.269,1.322
	c0.251,0.974-0.357,1.962-1.359,2.207C67.323,59.66,66.307,59.068,66.056,58.094z"/>
<path fill="#56A3D5" d="M42.33,56.462c-0.251-0.975,0.357-1.962,1.359-2.207c1.002-0.245,2.018,0.347,2.27,1.322
	c0.251,0.975-0.357,1.963-1.359,2.208C43.597,58.029,42.581,57.437,42.33,56.462z"/>
<path fill="#2073AE" d="M48.406,58.553c-0.113-1.397,0.958-2.619,2.394-2.729c1.436-0.111,2.692,0.932,2.806,2.329
	s-0.958,2.618-2.395,2.729C49.776,60.992,48.52,59.95,48.406,58.553z"/>
<path fill="#264983" d="M56.095,58.848c-0.148-1.822,1.25-3.415,3.123-3.559c1.873-0.144,3.511,1.216,3.659,3.037
	c0.148,1.822-1.25,3.415-3.123,3.559C57.882,62.029,56.244,60.669,56.095,58.848z"/>
<path fill="#89B9E0" d="M45.779,52.337c-0.472-0.666-0.298-1.578,0.387-2.036c0.685-0.458,1.622-0.29,2.094,0.376
	c0.471,0.667,0.298,1.578-0.387,2.037C47.188,53.172,46.25,53.003,45.779,52.337z"/>
<path fill="#D17363" d="M83.154,35.086c-0.423-0.598-0.268-1.417,0.348-1.829s1.457-0.26,1.88,0.338
	c0.423,0.599,0.268,1.417-0.348,1.829C84.419,35.836,83.577,35.685,83.154,35.086z"/>
<path fill="#C85248" d="M78.375,39.847c-0.471-0.667-0.298-1.578,0.387-2.037s1.623-0.29,2.094,0.377
	c0.471,0.666,0.298,1.578-0.387,2.036C79.784,40.682,78.847,40.514,78.375,39.847z"/>
<path fill="#645C8A" d="M72.853,44.593c-0.718-0.722-0.699-1.873,0.043-2.573c0.742-0.699,1.926-0.68,2.645,0.042
	c0.719,0.722,0.7,1.874-0.042,2.573S73.572,45.315,72.853,44.593z"/>
<path fill="#56A3D5" d="M51.468,54.718c-0.719-0.722-0.7-1.873,0.042-2.572c0.742-0.699,1.926-0.68,2.645,0.042
	s0.7,1.874-0.042,2.572C53.371,55.458,52.186,55.439,51.468,54.718z"/>
<path fill="#2073AE" d="M57.804,53.574c-0.816-1.154-0.517-2.734,0.67-3.528s2.811-0.502,3.627,0.652
	c0.816,1.154,0.516,2.734-0.671,3.528C60.245,55.02,58.621,54.728,57.804,53.574z"/>
<path fill="#264983" d="M64.615,50.09c-1.064-1.505-0.673-3.565,0.875-4.601c1.548-1.035,3.666-0.655,4.73,0.851
	c1.064,1.505,0.673,3.565-0.875,4.6C67.798,51.976,65.68,51.595,64.615,50.09z"/>
<path fill="#89B9E0" d="M51.375,49.604c-0.755-0.339-1.084-1.209-0.735-1.943c0.349-0.735,1.243-1.055,1.999-0.716
	c0.755,0.339,1.084,1.209,0.735,1.943C53.025,49.623,52.13,49.943,51.375,49.604z"/>
<path fill="#D17363" d="M74.465,16.219c-0.678-0.305-0.974-1.086-0.661-1.746c0.313-0.659,1.117-0.947,1.794-0.642
	c0.678,0.304,0.974,1.086,0.661,1.745C75.946,16.236,75.143,16.523,74.465,16.219z"/>
<path fill="#C85248" d="M72.854,22.685c-0.755-0.339-1.084-1.209-0.736-1.943s1.244-1.055,1.999-0.716
	c0.755,0.339,1.084,1.209,0.736,1.944C74.503,22.704,73.609,23.024,72.854,22.685z"/>
<path fill="#645C8A" d="M70.595,29.507c-0.997-0.264-1.584-1.264-1.313-2.233c0.271-0.97,1.3-1.542,2.296-1.278
	c0.997,0.264,1.585,1.264,1.313,2.234C72.62,29.199,71.592,29.771,70.595,29.507z"/>
<path fill="#56A3D5" d="M57.516,48.828c-0.997-0.264-1.585-1.264-1.313-2.233s1.299-1.541,2.296-1.277
	c0.997,0.264,1.584,1.264,1.313,2.233C59.541,48.521,58.513,49.092,57.516,48.828z"/>
<path fill="#2073AE" d="M62.365,44.699c-1.308-0.588-1.878-2.095-1.274-3.367c0.604-1.272,2.154-1.827,3.461-1.239
	s1.878,2.095,1.274,3.366C65.223,44.731,63.673,45.287,62.365,44.699z"/>
<path fill="#264983" d="M66.394,38.323c-1.705-0.767-2.449-2.732-1.662-4.391c0.788-1.659,2.809-2.382,4.514-1.616
	s2.45,2.732,1.662,4.391C70.121,38.365,68.1,39.088,66.394,38.323z"/>
<path fill="#89B9E0" d="M54.907,44.828c-0.829,0.074-1.561-0.52-1.637-1.325c-0.075-0.806,0.535-1.518,1.363-1.591
	c0.828-0.074,1.561,0.52,1.636,1.325C56.345,44.042,55.735,44.754,54.907,44.828z"/>
<path fill="#D17363" d="M57.74,4.688c-0.744,0.065-1.401-0.467-1.469-1.191c-0.068-0.723,0.48-1.363,1.224-1.429
	c0.744-0.066,1.401,0.467,1.469,1.19C59.032,3.981,58.484,4.621,57.74,4.688z"/>
<path fill="#C85248" d="M59.668,11.07c-0.828,0.074-1.561-0.52-1.636-1.325c-0.075-0.805,0.535-1.518,1.363-1.592
	c0.829-0.073,1.561,0.521,1.637,1.326C61.107,10.284,60.497,10.997,59.668,11.07z"/>
<path fill="#645C8A" d="M61.22,18.077c-0.999,0.256-2.022-0.324-2.286-1.295c-0.263-0.972,0.333-1.967,1.332-2.223
	c0.999-0.256,2.022,0.324,2.285,1.295C62.815,16.826,62.219,17.821,61.22,18.077z"/>
<path fill="#56A3D5" d="M59.826,41.169c-0.999,0.256-2.022-0.324-2.286-1.295c-0.263-0.972,0.333-1.967,1.332-2.223
	c0.999-0.256,2.022,0.324,2.286,1.295S60.825,40.914,59.826,41.169z"/>
<path fill="#2073AE" d="M61.903,35.235c-1.435,0.127-2.704-0.9-2.834-2.295c-0.13-1.396,0.926-2.63,2.361-2.757
	s2.704,0.9,2.834,2.296C64.394,33.874,63.337,35.108,61.903,35.235z"/>
<path fill="#264983" d="M62.114,27.754c-1.871,0.166-3.525-1.175-3.696-2.995c-0.171-1.819,1.208-3.429,3.079-3.595
	c1.871-0.166,3.526,1.175,3.697,2.994C65.363,25.979,63.985,27.588,62.114,27.754z"/>
<path fill="#89B9E0" d="M30.784,42.343c0.68-0.466,1.619-0.309,2.099,0.353c0.479,0.661,0.317,1.574-0.362,2.041
	c-0.68,0.467-1.619,0.309-2.099-0.352C29.943,43.724,30.105,42.81,30.784,42.343z"/>
<path fill="#D17363" d="M48.967,78.484c0.61-0.419,1.454-0.277,1.885,0.316c0.43,0.593,0.285,1.414-0.325,1.832
	c-0.61,0.419-1.454,0.277-1.884-0.316C48.211,79.724,48.357,78.902,48.967,78.484z"/>
<path fill="#C85248" d="M44.015,73.895c0.68-0.467,1.619-0.31,2.099,0.353c0.479,0.66,0.317,1.574-0.362,2.04
	c-0.679,0.467-1.619,0.309-2.098-0.352C43.173,75.274,43.335,74.36,44.015,73.895z"/>
<path fill="#645C8A" d="M39.07,68.581c0.733-0.708,1.917-0.703,2.645,0.01c0.728,0.714,0.723,1.866-0.011,2.573
	s-1.918,0.703-2.646-0.011C38.331,70.44,38.336,69.288,39.07,68.581z"/>
<path fill="#56A3D5" d="M28.405,47.904c0.733-0.708,1.917-0.703,2.645,0.011s0.723,1.865-0.011,2.573
	c-0.733,0.707-1.918,0.703-2.646-0.011C27.667,49.763,27.671,48.611,28.405,47.904z"/>
<path fill="#2073AE" d="M29.657,54.053c1.177-0.808,2.805-0.535,3.635,0.61c0.831,1.145,0.55,2.728-0.627,3.535
	c-1.177,0.808-2.804,0.535-3.635-0.61S28.48,54.861,29.657,54.053z"/>
<path fill="#264983" d="M33.32,60.635c1.535-1.054,3.658-0.698,4.741,0.795s0.717,3.557-0.818,4.61
	c-1.535,1.054-3.657,0.698-4.74-0.795C31.419,63.752,31.785,61.688,33.32,60.635z"/>
<circle fill="#BE1E2D" cx="163.529" cy="34.297" r="1.778"/>
<g>
	<path fill="#264983" d="M106.783,38.819c0-0.845-0.299-1.536-0.898-2.075s-1.659-1.021-3.182-1.448
		c-2.181-0.604-3.863-1.395-5.047-2.374c-1.184-0.979-1.775-2.258-1.775-3.836c0-1.634,0.65-2.979,1.949-4.038
		c1.3-1.058,2.97-1.587,5.013-1.587c2.19,0,3.942,0.587,5.256,1.761s1.947,2.625,1.9,4.351l-0.028,0.083h-3.258
		c0-1.067-0.355-1.917-1.065-2.548s-1.654-0.947-2.833-0.947c-1.142,0-2.021,0.269-2.638,0.808
		c-0.617,0.538-0.926,1.234-0.926,2.088c0,0.78,0.339,1.422,1.016,1.928c0.678,0.506,1.801,0.986,3.37,1.441
		c2.125,0.594,3.745,1.404,4.859,2.429c1.114,1.026,1.671,2.337,1.671,3.934c0,1.68-0.659,3.021-1.977,4.023
		s-3.049,1.504-5.193,1.504c-2.061,0-3.856-0.548-5.388-1.643s-2.274-2.641-2.228-4.636l0.028-0.083h3.258
		c0,1.216,0.42,2.132,1.26,2.75c0.84,0.617,1.863,0.926,3.07,0.926c1.197,0,2.128-0.253,2.792-0.759
		C106.452,40.367,106.783,39.683,106.783,38.819z"/>
	<path fill="#264983" d="M113.576,44.026V23.754h6.642c2.237,0,3.986,0.461,5.249,1.385c1.262,0.924,1.894,2.304,1.894,4.142
		c0,0.891-0.253,1.694-0.759,2.409s-1.209,1.258-2.109,1.629c1.299,0.214,2.299,0.775,3,1.685c0.701,0.91,1.051,1.977,1.051,3.202
		c0,1.903-0.622,3.349-1.865,4.337c-1.244,0.989-2.961,1.483-5.152,1.483H113.576z M116.959,32.289h3.62
		c1.049,0,1.877-0.248,2.485-0.745s0.912-1.2,0.912-2.109c0-1.002-0.32-1.748-0.961-2.235s-1.573-0.731-2.798-0.731h-3.258V32.289z
		 M116.959,34.81v6.516h4.567c1.169,0,2.07-0.267,2.701-0.8s0.947-1.307,0.947-2.318c0-1.021-0.311-1.833-0.933-2.437
		c-0.622-0.604-1.494-0.923-2.617-0.96h-0.181H116.959z"/>
	<path fill="#264983" d="M135.679,44.026h-3.383V23.754h3.383V44.026z"/>
	<path fill="#264983" d="M143.887,35.617v8.41h-3.383V23.754h6.975c2.256,0,4.001,0.51,5.235,1.531
		c1.235,1.021,1.853,2.479,1.853,4.372c0,1.049-0.271,1.952-0.814,2.708s-1.335,1.362-2.374,1.817
		c1.142,0.362,1.965,0.952,2.471,1.769s0.759,1.829,0.759,3.035v1.685c0,0.594,0.074,1.174,0.223,1.74
		c0.149,0.566,0.395,0.998,0.738,1.295v0.32h-3.48c-0.371-0.306-0.608-0.784-0.71-1.434c-0.103-0.65-0.153-1.299-0.153-1.949v-1.629
		c0-1.04-0.3-1.866-0.898-2.479c-0.599-0.612-1.413-0.919-2.443-0.919H143.887z M143.887,32.902h3.411
		c1.355,0,2.344-0.26,2.966-0.78c0.622-0.52,0.933-1.313,0.933-2.381c0-1.021-0.306-1.822-0.919-2.402
		c-0.612-0.58-1.545-0.87-2.799-0.87h-3.592V32.902z"/>
	<path fill="#264983" d="M182.956,38.819c0-0.845-0.299-1.536-0.897-2.075s-1.659-1.021-3.182-1.448
		c-2.182-0.604-3.863-1.395-5.047-2.374c-1.184-0.979-1.775-2.258-1.775-3.836c0-1.634,0.649-2.979,1.949-4.038
		s2.97-1.587,5.013-1.587c2.19,0,3.942,0.587,5.256,1.761s1.946,2.625,1.9,4.351l-0.028,0.083h-3.258
		c0-1.067-0.354-1.917-1.065-2.548c-0.71-0.631-1.654-0.947-2.833-0.947c-1.142,0-2.021,0.269-2.639,0.808
		c-0.617,0.538-0.926,1.234-0.926,2.088c0,0.78,0.339,1.422,1.016,1.928c0.679,0.506,1.802,0.986,3.37,1.441
		c2.125,0.594,3.745,1.404,4.859,2.429c1.114,1.026,1.671,2.337,1.671,3.934c0,1.68-0.659,3.021-1.978,4.023
		c-1.317,1.002-3.049,1.504-5.193,1.504c-2.061,0-3.856-0.548-5.388-1.643c-1.532-1.095-2.274-2.641-2.228-4.636l0.027-0.083h3.258
		c0,1.216,0.42,2.132,1.261,2.75c0.84,0.617,1.863,0.926,3.069,0.926c1.197,0,2.128-0.253,2.792-0.759
		S182.956,39.683,182.956,38.819z"/>
	<path fill="#264983" d="M203.539,26.469h-6.266v17.557h-3.384V26.469h-6.168v-2.715h15.817V26.469z"/>
	<path fill="#264983" d="M221.158,26.469h-6.265v17.557h-3.384V26.469h-6.168v-2.715h15.816V26.469z"/>
	<path fill="#264983" d="M227.231,35.617v8.41h-3.383V23.754h6.976c2.256,0,4.001,0.51,5.235,1.531s1.852,2.479,1.852,4.372
		c0,1.049-0.271,1.952-0.814,2.708s-1.334,1.362-2.374,1.817c1.142,0.362,1.966,0.952,2.472,1.769s0.759,1.829,0.759,3.035v1.685
		c0,0.594,0.074,1.174,0.223,1.74c0.148,0.566,0.395,0.998,0.738,1.295v0.32h-3.481c-0.371-0.306-0.607-0.784-0.71-1.434
		c-0.102-0.65-0.153-1.299-0.153-1.949v-1.629c0-1.04-0.299-1.866-0.897-2.479c-0.599-0.612-1.413-0.919-2.443-0.919H227.231z
		 M227.231,32.902h3.412c1.355,0,2.344-0.26,2.966-0.78c0.621-0.52,0.933-1.313,0.933-2.381c0-1.021-0.307-1.822-0.919-2.402
		s-1.546-0.87-2.799-0.87h-3.593V32.902z"/>
</g>
<g>
	<path fill="#264983" d="M127.692,70.469c0,0.609-0.19,1.074-0.57,1.396c-0.38,0.322-0.921,0.483-1.623,0.483h-0.514v2.011h-1.199
		v-5.654h1.806c0.686,0,1.208,0.148,1.564,0.443C127.514,69.443,127.692,69.884,127.692,70.469z M124.985,71.366h0.395
		c0.369,0,0.645-0.072,0.828-0.218c0.182-0.146,0.274-0.358,0.274-0.637c0-0.281-0.077-0.489-0.23-0.623
		c-0.153-0.134-0.394-0.201-0.721-0.201h-0.545V71.366z"/>
	<path fill="#264983" d="M135,71.525c0,0.936-0.231,1.655-0.696,2.157c-0.464,0.503-1.129,0.755-1.996,0.755
		c-0.866,0-1.531-0.252-1.995-0.755c-0.464-0.502-0.697-1.224-0.697-2.165s0.233-1.66,0.699-2.156
		c0.465-0.496,1.132-0.745,2.001-0.745s1.533,0.25,1.993,0.751C134.771,69.867,135,70.587,135,71.525z M130.875,71.525
		c0,0.632,0.119,1.107,0.359,1.427c0.239,0.319,0.598,0.479,1.075,0.479c0.957,0,1.435-0.636,1.435-1.906
		c0-1.274-0.476-1.911-1.427-1.911c-0.477,0-0.836,0.16-1.08,0.482C130.995,70.416,130.875,70.893,130.875,71.525z"/>
	<path fill="#264983" d="M142.869,74.359h-1.365l-0.766-2.97c-0.029-0.106-0.077-0.324-0.146-0.656
		c-0.068-0.331-0.107-0.553-0.118-0.667c-0.015,0.14-0.054,0.363-0.116,0.672c-0.062,0.308-0.11,0.527-0.144,0.659l-0.762,2.962
		h-1.362l-1.442-5.654h1.18l0.724,3.087c0.126,0.57,0.217,1.063,0.274,1.481c0.016-0.147,0.051-0.375,0.106-0.684
		c0.056-0.308,0.107-0.547,0.157-0.717l0.824-3.168h1.133l0.824,3.168c0.036,0.142,0.081,0.358,0.136,0.649
		c0.054,0.292,0.095,0.542,0.124,0.751c0.025-0.201,0.067-0.452,0.123-0.753c0.057-0.3,0.108-0.543,0.155-0.729l0.719-3.087h1.18
		L142.869,74.359z"/>
	<path fill="#264983" d="M149.781,74.359h-3.257v-5.654h3.257v0.982h-2.058v1.242h1.915v0.982h-1.915v1.458h2.058V74.359z"/>
	<path fill="#264983" d="M153.744,72.19v2.169h-1.199v-5.654h1.647c0.769,0,1.337,0.141,1.706,0.42s0.553,0.704,0.553,1.274
		c0,0.333-0.091,0.628-0.274,0.888c-0.184,0.259-0.442,0.462-0.777,0.609c0.851,1.271,1.405,2.092,1.663,2.463h-1.331l-1.35-2.169
		H153.744z M153.744,71.216h0.387c0.379,0,0.659-0.063,0.839-0.189c0.181-0.126,0.271-0.325,0.271-0.596
		c0-0.269-0.093-0.459-0.276-0.572c-0.186-0.114-0.471-0.171-0.857-0.171h-0.363V71.216z"/>
	<path fill="#264983" d="M162.329,74.359h-3.257v-5.654h3.257v0.982h-2.058v1.242h1.915v0.982h-1.915v1.458h2.058V74.359z"/>
	<path fill="#264983" d="M169.705,71.479c0,0.931-0.265,1.644-0.794,2.139c-0.531,0.495-1.296,0.742-2.296,0.742h-1.602v-5.654
		h1.775c0.923,0,1.64,0.244,2.15,0.731S169.705,70.604,169.705,71.479z M168.459,71.51c0-1.215-0.536-1.822-1.608-1.822h-0.639
		v3.683h0.515C167.881,73.37,168.459,72.749,168.459,71.51z"/>
	<path fill="#264983" d="M176.103,68.705h1.76c0.802,0,1.384,0.115,1.745,0.342c0.363,0.229,0.544,0.592,0.544,1.09
		c0,0.338-0.079,0.614-0.237,0.831c-0.159,0.217-0.37,0.347-0.633,0.391v0.039c0.358,0.079,0.617,0.229,0.775,0.448
		c0.159,0.219,0.238,0.511,0.238,0.874c0,0.517-0.187,0.919-0.559,1.207c-0.373,0.288-0.879,0.433-1.519,0.433h-2.115V68.705z
		 M177.301,70.945h0.696c0.325,0,0.561-0.051,0.706-0.151s0.219-0.267,0.219-0.499c0-0.217-0.08-0.372-0.237-0.467
		c-0.16-0.093-0.41-0.141-0.753-0.141h-0.631V70.945z M177.301,71.896v1.474h0.781c0.33,0,0.574-0.063,0.731-0.189
		c0.157-0.127,0.235-0.32,0.235-0.581c0-0.469-0.335-0.703-1.005-0.703H177.301z"/>
	<path fill="#264983" d="M184.57,71.034l1.18-2.329h1.292l-1.876,3.454v2.2h-1.19v-2.161l-1.876-3.493h1.299L184.57,71.034z"/>
	<path fill="#264983" d="M196.317,72.79c0,0.51-0.184,0.912-0.552,1.206c-0.366,0.294-0.878,0.441-1.533,0.441
		c-0.604,0-1.137-0.114-1.601-0.341v-1.113c0.381,0.17,0.704,0.29,0.968,0.359c0.265,0.069,0.507,0.104,0.726,0.104
		c0.264,0,0.465-0.051,0.605-0.151s0.211-0.249,0.211-0.448c0-0.11-0.031-0.21-0.093-0.296s-0.152-0.17-0.273-0.249
		c-0.119-0.08-0.363-0.208-0.732-0.383c-0.346-0.163-0.604-0.319-0.777-0.469c-0.172-0.149-0.311-0.323-0.414-0.521
		c-0.103-0.199-0.154-0.432-0.154-0.696c0-0.501,0.169-0.894,0.508-1.18c0.34-0.286,0.809-0.43,1.406-0.43
		c0.294,0,0.574,0.035,0.842,0.104c0.267,0.069,0.546,0.168,0.837,0.294l-0.387,0.933c-0.302-0.124-0.551-0.211-0.749-0.26
		c-0.196-0.049-0.391-0.073-0.581-0.073c-0.227,0-0.401,0.053-0.522,0.158c-0.121,0.106-0.182,0.244-0.182,0.414
		c0,0.106,0.024,0.198,0.073,0.276c0.049,0.079,0.127,0.154,0.234,0.229c0.107,0.073,0.36,0.205,0.76,0.396
		c0.528,0.253,0.891,0.506,1.087,0.76C196.218,72.109,196.317,72.421,196.317,72.79z"/>
	<path fill="#264983" d="M198.846,68.705h1.76c0.802,0,1.384,0.115,1.746,0.342c0.362,0.229,0.543,0.592,0.543,1.09
		c0,0.338-0.079,0.614-0.237,0.831c-0.159,0.217-0.369,0.347-0.633,0.391v0.039c0.358,0.079,0.617,0.229,0.775,0.448
		c0.159,0.219,0.238,0.511,0.238,0.874c0,0.517-0.187,0.919-0.559,1.207c-0.373,0.288-0.879,0.433-1.519,0.433h-2.115V68.705z
		 M200.045,70.945h0.696c0.324,0,0.56-0.051,0.705-0.151c0.146-0.101,0.219-0.267,0.219-0.499c0-0.217-0.079-0.372-0.237-0.467
		c-0.159-0.093-0.41-0.141-0.753-0.141h-0.63V70.945z M200.045,71.896v1.474h0.781c0.33,0,0.573-0.063,0.73-0.189
		c0.157-0.127,0.236-0.32,0.236-0.581c0-0.469-0.335-0.703-1.006-0.703H200.045z"/>
	<path fill="#264983" d="M209.213,74.359l-0.41-1.346h-2.062l-0.409,1.346h-1.292l1.995-5.677h1.466l2.004,5.677H209.213z
		 M208.517,72.009c-0.379-1.22-0.592-1.909-0.64-2.069s-0.082-0.286-0.103-0.379c-0.085,0.33-0.329,1.146-0.731,2.448H208.517z"/>
</g>
<g>
	<path fill="#BE1E2D" d="M102.414,58.857l-1.14-2.914h-3.672l-1.128,2.914h-1.077l3.622-9.198h0.896l3.603,9.198H102.414z
		 M100.942,54.985l-1.065-2.838c-0.138-0.359-0.28-0.8-0.426-1.322c-0.092,0.401-0.223,0.842-0.395,1.322l-1.078,2.838H100.942z"/>
	<path fill="#BE1E2D" d="M114.784,58.857V54.39c0-0.547-0.117-0.957-0.351-1.231c-0.234-0.273-0.597-0.411-1.09-0.411
		c-0.647,0-1.125,0.186-1.435,0.558c-0.31,0.372-0.463,0.944-0.463,1.717v3.835h-1.041V54.39c0-0.547-0.117-0.957-0.351-1.231
		c-0.234-0.273-0.599-0.411-1.097-0.411c-0.651,0-1.129,0.195-1.432,0.586c-0.302,0.391-0.454,1.031-0.454,1.92v3.603h-1.04V51.99
		h0.846l0.169,0.94h0.05c0.196-0.334,0.473-0.595,0.831-0.783c0.357-0.188,0.757-0.282,1.2-0.282c1.074,0,1.775,0.388,2.105,1.166
		h0.05c0.205-0.359,0.501-0.644,0.89-0.852c0.389-0.209,0.831-0.313,1.329-0.313c0.777,0,1.358,0.2,1.744,0.598
		c0.387,0.399,0.581,1.037,0.581,1.914v4.48H114.784z"/>
	<path fill="#BE1E2D" d="M121.702,58.983c-1.015,0-1.816-0.31-2.402-0.928c-0.587-0.618-0.88-1.477-0.88-2.575
		c0-1.107,0.272-1.986,0.817-2.638c0.545-0.652,1.277-0.978,2.196-0.978c0.86,0,1.541,0.283,2.042,0.849s0.752,1.312,0.752,2.24
		v0.658h-4.731c0.021,0.807,0.225,1.418,0.611,1.836c0.386,0.418,0.93,0.626,1.632,0.626c0.739,0,1.47-0.154,2.193-0.463v0.928
		c-0.368,0.158-0.716,0.272-1.043,0.341C122.561,58.948,122.166,58.983,121.702,58.983z M121.419,52.736
		c-0.551,0-0.991,0.179-1.318,0.539c-0.328,0.359-0.521,0.856-0.58,1.491h3.59c0-0.656-0.146-1.158-0.438-1.507
		C122.38,52.91,121.963,52.736,121.419,52.736z"/>
	<path fill="#BE1E2D" d="M130.416,51.865c0.304,0,0.577,0.025,0.821,0.075l-0.145,0.965c-0.284-0.062-0.534-0.094-0.752-0.094
		c-0.555,0-1.03,0.225-1.425,0.677c-0.395,0.451-0.592,1.013-0.592,1.685v3.685h-1.04V51.99h0.858l0.119,1.271h0.05
		c0.254-0.447,0.562-0.791,0.921-1.034C129.591,51.986,129.985,51.865,130.416,51.865z"/>
	<path fill="#BE1E2D" d="M133.716,50.129c0-0.238,0.059-0.412,0.175-0.522c0.117-0.111,0.264-0.167,0.439-0.167
		c0.167,0,0.311,0.056,0.432,0.169c0.121,0.112,0.182,0.286,0.182,0.52c0,0.234-0.061,0.409-0.182,0.523
		c-0.122,0.115-0.265,0.172-0.432,0.172c-0.175,0-0.322-0.058-0.439-0.172C133.775,50.538,133.716,50.363,133.716,50.129z
		 M134.844,58.857h-1.04V51.99h1.04V58.857z"/>
	<path fill="#BE1E2D" d="M140.948,58.983c-0.993,0-1.763-0.307-2.308-0.918c-0.545-0.612-0.818-1.478-0.818-2.597
		c0-1.148,0.276-2.036,0.83-2.663c0.553-0.626,1.341-0.94,2.364-0.94c0.33,0,0.661,0.036,0.99,0.106
		c0.33,0.071,0.589,0.155,0.777,0.25l-0.319,0.883c-0.23-0.091-0.48-0.167-0.752-0.229c-0.272-0.06-0.512-0.091-0.721-0.091
		c-1.395,0-2.092,0.89-2.092,2.669c0,0.844,0.17,1.492,0.511,1.942c0.34,0.452,0.844,0.677,1.512,0.677
		c0.572,0,1.159-0.123,1.761-0.37v0.921C142.224,58.864,141.646,58.983,140.948,58.983z"/>
	<path fill="#BE1E2D" d="M149.819,58.857l-0.207-0.978h-0.05c-0.343,0.43-0.684,0.722-1.024,0.874s-0.766,0.229-1.275,0.229
		c-0.681,0-1.215-0.176-1.601-0.527c-0.387-0.351-0.58-0.85-0.58-1.498c0-1.387,1.109-2.113,3.327-2.18l1.166-0.038v-0.426
		c0-0.539-0.116-0.937-0.348-1.193c-0.232-0.257-0.603-0.385-1.112-0.385c-0.572,0-1.22,0.175-1.942,0.526l-0.319-0.795
		c0.338-0.184,0.708-0.328,1.111-0.433c0.404-0.104,0.808-0.156,1.213-0.156c0.818,0,1.426,0.182,1.82,0.545
		s0.592,0.946,0.592,1.748v4.687H149.819z M147.469,58.124c0.646,0,1.156-0.177,1.525-0.532c0.37-0.355,0.555-0.853,0.555-1.492
		v-0.62l-1.04,0.044c-0.827,0.029-1.424,0.157-1.788,0.385c-0.366,0.228-0.549,0.582-0.549,1.062c0,0.376,0.113,0.663,0.341,0.858
		C146.742,58.026,147.06,58.124,147.469,58.124z"/>
	<path fill="#BE1E2D" d="M154.849,49.697l0.094,0.138c-0.108,0.417-0.266,0.903-0.47,1.457c-0.205,0.554-0.418,1.068-0.639,1.544
		h-0.765c0.292-1.19,0.505-2.237,0.639-3.139H154.849z"/>
	<path fill="#BE1E2D" d="M161.267,56.983c0,0.64-0.238,1.132-0.714,1.479c-0.477,0.348-1.146,0.521-2.006,0.521
		c-0.91,0-1.62-0.145-2.13-0.433v-0.965c0.329,0.167,0.684,0.299,1.062,0.396c0.378,0.096,0.742,0.144,1.093,0.144
		c0.543,0,0.961-0.086,1.253-0.26s0.438-0.438,0.438-0.793c0-0.267-0.116-0.496-0.348-0.686c-0.231-0.19-0.685-0.415-1.356-0.673
		c-0.639-0.238-1.093-0.446-1.363-0.624c-0.269-0.177-0.469-0.379-0.601-0.605c-0.132-0.225-0.197-0.495-0.197-0.808
		c0-0.56,0.228-1.002,0.683-1.326s1.079-0.485,1.873-0.485c0.739,0,1.462,0.15,2.168,0.451l-0.369,0.846
		c-0.689-0.284-1.313-0.426-1.874-0.426c-0.492,0-0.864,0.077-1.115,0.231c-0.251,0.155-0.376,0.368-0.376,0.639
		c0,0.184,0.047,0.341,0.142,0.47c0.094,0.13,0.245,0.253,0.454,0.37s0.609,0.286,1.203,0.507c0.814,0.296,1.365,0.595,1.65,0.896
		C161.124,56.15,161.267,56.528,161.267,56.983z"/>
	<path fill="#BE1E2D" d="M174.184,56.42c0,0.806-0.292,1.435-0.877,1.886c-0.585,0.451-1.378,0.677-2.381,0.677
		c-1.086,0-1.922-0.14-2.506-0.42v-1.027c0.376,0.158,0.785,0.284,1.228,0.375c0.443,0.091,0.882,0.138,1.315,0.138
		c0.71,0,1.244-0.134,1.604-0.404c0.358-0.269,0.538-0.645,0.538-1.125c0-0.317-0.063-0.578-0.191-0.78
		c-0.126-0.202-0.34-0.389-0.639-0.561s-0.752-0.365-1.362-0.583c-0.853-0.305-1.461-0.667-1.827-1.084
		c-0.364-0.417-0.547-0.962-0.547-1.635c0-0.706,0.265-1.268,0.795-1.686s1.232-0.626,2.105-0.626c0.91,0,1.748,0.167,2.513,0.501
		l-0.332,0.927c-0.757-0.317-1.491-0.476-2.206-0.476c-0.564,0-1.004,0.121-1.322,0.363c-0.317,0.243-0.476,0.579-0.476,1.009
		c0,0.317,0.058,0.577,0.176,0.78c0.116,0.203,0.313,0.389,0.592,0.558c0.277,0.169,0.702,0.356,1.274,0.561
		c0.961,0.343,1.622,0.71,1.983,1.103C174.003,55.284,174.184,55.793,174.184,56.42z"/>
	<path fill="#BE1E2D" d="M179.957,58.983c-1.015,0-1.816-0.31-2.402-0.928c-0.588-0.618-0.881-1.477-0.881-2.575
		c0-1.107,0.272-1.986,0.817-2.638c0.545-0.652,1.277-0.978,2.196-0.978c0.86,0,1.541,0.283,2.042,0.849s0.752,1.312,0.752,2.24
		v0.658h-4.73c0.021,0.807,0.225,1.418,0.61,1.836c0.387,0.418,0.931,0.626,1.634,0.626c0.738,0,1.469-0.154,2.192-0.463v0.928
		c-0.368,0.158-0.716,0.272-1.043,0.341C180.816,58.948,180.419,58.983,179.957,58.983z M179.674,52.736
		c-0.551,0-0.991,0.179-1.319,0.539s-0.521,0.856-0.579,1.491h3.59c0-0.656-0.146-1.158-0.438-1.507
		C180.634,52.91,180.217,52.736,179.674,52.736z"/>
	<path fill="#BE1E2D" d="M188.439,58.983c-1.016,0-1.816-0.31-2.403-0.928s-0.88-1.477-0.88-2.575c0-1.107,0.272-1.986,0.817-2.638
		c0.545-0.652,1.277-0.978,2.196-0.978c0.86,0,1.541,0.283,2.042,0.849s0.752,1.312,0.752,2.24v0.658h-4.73
		c0.021,0.807,0.225,1.418,0.61,1.836c0.387,0.418,0.931,0.626,1.633,0.626c0.739,0,1.47-0.154,2.193-0.463v0.928
		c-0.368,0.158-0.716,0.272-1.044,0.341C189.298,58.948,188.902,58.983,188.439,58.983z M188.157,52.736
		c-0.551,0-0.991,0.179-1.319,0.539s-0.521,0.856-0.579,1.491h3.59c0-0.656-0.146-1.158-0.438-1.507
		C189.117,52.91,188.7,52.736,188.157,52.736z"/>
	<path fill="#BE1E2D" d="M198.694,57.936h-0.057c-0.48,0.698-1.199,1.047-2.155,1.047c-0.897,0-1.596-0.307-2.096-0.921
		c-0.499-0.614-0.748-1.487-0.748-2.619s0.251-2.011,0.752-2.638s1.198-0.94,2.092-0.94c0.932,0,1.646,0.338,2.143,1.015h0.082
		l-0.044-0.495l-0.025-0.482v-2.794h1.04v9.75h-0.846L198.694,57.936z M196.614,58.112c0.71,0,1.226-0.193,1.545-0.58
		c0.319-0.387,0.479-1.01,0.479-1.871v-0.219c0-0.973-0.161-1.668-0.485-2.083c-0.323-0.416-0.841-0.623-1.551-0.623
		c-0.61,0-1.076,0.237-1.4,0.711c-0.323,0.474-0.485,1.144-0.485,2.008c0,0.877,0.161,1.54,0.482,1.986
		C195.519,57.888,195.991,58.112,196.614,58.112z"/>
	<path fill="#BE1E2D" d="M209.003,58.857h-1.065v-9.16h5.106v0.946h-4.041v3.352h3.797v0.946h-3.797V58.857z"/>
	<path fill="#BE1E2D" d="M216.665,51.99v4.455c0,0.56,0.128,0.977,0.383,1.253c0.255,0.276,0.653,0.414,1.196,0.414
		c0.719,0,1.243-0.197,1.576-0.589c0.332-0.393,0.498-1.034,0.498-1.923V51.99h1.04v6.867H220.5l-0.15-0.921h-0.057
		c-0.213,0.338-0.508,0.597-0.887,0.777c-0.378,0.18-0.809,0.27-1.294,0.27c-0.835,0-1.46-0.199-1.876-0.596
		c-0.416-0.397-0.624-1.032-0.624-1.905V51.99H216.665z"/>
	<path fill="#BE1E2D" d="M229.225,58.857v-4.443c0-0.56-0.128-0.977-0.382-1.253c-0.256-0.276-0.654-0.414-1.197-0.414
		c-0.719,0-1.245,0.194-1.579,0.583c-0.334,0.388-0.501,1.029-0.501,1.923v3.603h-1.04V51.99h0.846l0.169,0.94h0.051
		c0.213-0.338,0.511-0.601,0.896-0.787c0.385-0.186,0.812-0.279,1.284-0.279c0.827,0,1.449,0.2,1.867,0.598
		c0.418,0.399,0.626,1.037,0.626,1.914v4.48H229.225z"/>
	<path fill="#BE1E2D" d="M237.91,57.936h-0.056c-0.48,0.698-1.199,1.047-2.155,1.047c-0.898,0-1.597-0.307-2.097-0.921
		c-0.499-0.614-0.748-1.487-0.748-2.619s0.251-2.011,0.752-2.638c0.502-0.626,1.198-0.94,2.093-0.94
		c0.931,0,1.646,0.338,2.143,1.015h0.081l-0.043-0.495l-0.025-0.482v-2.794h1.04v9.75h-0.847L237.91,57.936z M235.83,58.112
		c0.711,0,1.226-0.193,1.545-0.58c0.319-0.387,0.479-1.01,0.479-1.871v-0.219c0-0.973-0.162-1.668-0.485-2.083
		c-0.324-0.416-0.841-0.623-1.551-0.623c-0.61,0-1.077,0.237-1.401,0.711c-0.323,0.474-0.484,1.144-0.484,2.008
		c0,0.877,0.16,1.54,0.481,1.986C234.736,57.888,235.208,58.112,235.83,58.112z"/>
</g>
<g>
	<path fill="#BE1E2D" d="M242.578,51.819h-0.315v-2.436h-0.86v-0.281h2.036v0.281h-0.86V51.819z"/>
	<path fill="#BE1E2D" d="M245.048,51.819l-0.922-2.408h-0.015c0.018,0.191,0.026,0.417,0.026,0.68v1.728h-0.291v-2.717h0.475
		l0.86,2.241h0.016l0.866-2.241h0.473v2.717h-0.316v-1.75c0-0.201,0.009-0.419,0.026-0.654h-0.015l-0.929,2.404H245.048z"/>
</g>
</svg>
