<svg width="175" height="202" viewBox="0 0 175 202" fill="none" xmlns="http://www.w3.org/2000/svg">
<path fill-rule="evenodd" clip-rule="evenodd" d="M14.8048 159.859L36.2262 118.629L0 65.6071V151.204L14.8048 159.859ZM20.8692 163.37L49.5979 179.957L61.9213 156.237L40.7071 125.187L20.8692 163.37ZM55.6661 183.46L87.3035 201.726L91.3889 199.367L66.4022 162.796L55.6661 183.46ZM97.4685 195.857L134.461 174.499L153.921 137.045L111.806 75.4053L70.0643 155.747L97.4685 195.857ZM145.73 167.993L166.767 155.848L158.401 143.604L145.73 167.993ZM172.846 152.338L174.793 151.214V112.055L162.064 136.555L172.846 152.338ZM174.785 96.8863L174.691 50.3459L136.332 28.1995L115.468 68.3568L157.583 129.997L174.785 96.8863ZM130.264 24.696L101.535 8.10957L89.7732 30.7485L110.987 61.7983L130.264 24.696ZM95.4671 4.60607L87.4891 0L74.0616 7.75238L85.2922 24.19L95.4671 4.60607ZM67.9819 11.2625L0 50.5119V53.1986L39.8882 111.581L81.6302 31.2385L67.9819 11.2625ZM65.5834 149.189L107.325 68.8468L86.1111 37.797L44.3692 118.139L65.5834 149.189Z" fill="#EBAF44"/>
</svg>
