<svg width="490" height="104" viewBox="0 0 490 104" fill="none" xmlns="http://www.w3.org/2000/svg">
<path fill-rule="evenodd" clip-rule="evenodd" d="M19.7076 69.6683L25.9856 57.2349L15.3687 41.2456V67.0581L19.7076 69.6683ZM21.4849 70.727L29.9046 75.7288L33.5163 68.5761L27.2989 59.2127L21.4849 70.727ZM31.6831 76.7854L40.9555 82.2938L42.1526 81.5826L34.8295 70.5539L31.6831 76.7854ZM43.9345 80.5241L54.7761 74.0834L60.4793 62.7884L48.1365 44.2L35.9028 68.4283L43.9345 80.5241ZM58.0787 72.1215L64.2444 68.4586L61.7926 64.7662L58.0787 72.1215ZM66.0262 67.4001L66.5967 67.0612V55.2518L62.8659 62.6406L66.0262 67.4001ZM66.5946 50.6775L66.5669 36.643L55.3246 29.9643L49.2098 42.0744L61.5526 60.6628L66.5946 50.6775ZM53.5461 28.9078L45.1264 23.906L41.6792 30.7332L47.8965 40.0966L53.5461 28.9078ZM43.348 22.8494L41.0099 21.4604L37.0744 23.7984L40.3659 28.7554L43.348 22.8494ZM35.2926 24.8569L15.3687 36.693V37.5036L27.0589 55.1093L39.2926 30.8809L35.2926 24.8569ZM34.5895 66.4505L46.8233 42.2222L40.6059 32.8587L28.3722 57.0871L34.5895 66.4505Z" fill="#EBAF44"/>
<path d="M92.393 73.3772V31.3772H110.093C114.573 31.3772 118.513 32.2572 121.913 34.0172C125.353 35.7772 128.013 38.2372 129.893 41.3972C131.813 44.5572 132.773 48.2172 132.773 52.3772C132.773 56.5372 131.813 60.1972 129.893 63.3572C128.013 66.5172 125.353 68.9772 121.913 70.7372C118.513 72.4972 114.573 73.3772 110.093 73.3772H92.393ZM98.393 68.1572H109.733C113.213 68.1572 116.213 67.4972 118.733 66.1772C121.293 64.8572 123.273 63.0172 124.673 60.6572C126.073 58.2572 126.773 55.4972 126.773 52.3772C126.773 49.2172 126.073 46.4572 124.673 44.0972C123.273 41.7372 121.293 39.8972 118.733 38.5772C116.213 37.2572 113.213 36.5972 109.733 36.5972H98.393V68.1572ZM155.064 73.7372C151.864 73.7372 149.024 73.0372 146.544 71.6372C144.064 70.2372 142.104 68.3172 140.664 65.8772C139.224 63.3972 138.504 60.5972 138.504 57.4772C138.504 54.3172 139.224 51.5172 140.664 49.0772C142.104 46.6372 144.064 44.7372 146.544 43.3772C149.024 41.9772 151.864 41.2772 155.064 41.2772C158.224 41.2772 161.044 41.9772 163.524 43.3772C166.044 44.7372 168.004 46.6372 169.404 49.0772C170.844 51.4772 171.564 54.2772 171.564 57.4772C171.564 60.6372 170.844 63.4372 169.404 65.8772C168.004 68.3172 166.044 70.2372 163.524 71.6372C161.044 73.0372 158.224 73.7372 155.064 73.7372ZM155.064 68.6972C157.104 68.6972 158.924 68.2372 160.524 67.3172C162.164 66.3972 163.444 65.0972 164.364 63.4172C165.284 61.6972 165.744 59.7172 165.744 57.4772C165.744 55.1972 165.284 53.2372 164.364 51.5972C163.444 49.9172 162.164 48.6172 160.524 47.6972C158.924 46.7772 157.104 46.3172 155.064 46.3172C153.024 46.3172 151.204 46.7772 149.604 47.6972C148.004 48.6172 146.724 49.9172 145.764 51.5972C144.804 53.2372 144.324 55.1972 144.324 57.4772C144.324 59.7172 144.804 61.6972 145.764 63.4172C146.724 65.0972 148.004 66.3972 149.604 67.3172C151.204 68.2372 153.024 68.6972 155.064 68.6972ZM188.97 73.7372C186.33 73.7372 183.81 73.3772 181.41 72.6572C179.05 71.9372 177.19 71.0572 175.83 70.0172L178.23 65.4572C179.59 66.3772 181.27 67.1572 183.27 67.7972C185.27 68.4372 187.31 68.7572 189.39 68.7572C192.07 68.7572 193.99 68.3772 195.15 67.6172C196.35 66.8572 196.95 65.7972 196.95 64.4372C196.95 63.4372 196.59 62.6572 195.87 62.0972C195.15 61.5372 194.19 61.1172 192.99 60.8372C191.83 60.5572 190.53 60.3172 189.09 60.1172C187.65 59.8772 186.21 59.5972 184.77 59.2772C183.33 58.9172 182.01 58.4372 180.81 57.8372C179.61 57.1972 178.65 56.3372 177.93 55.2572C177.21 54.1372 176.85 52.6572 176.85 50.8172C176.85 48.8972 177.39 47.2172 178.47 45.7772C179.55 44.3372 181.07 43.2372 183.03 42.4772C185.03 41.6772 187.39 41.2772 190.11 41.2772C192.19 41.2772 194.29 41.5372 196.41 42.0572C198.57 42.5372 200.33 43.2372 201.69 44.1572L199.23 48.7172C197.79 47.7572 196.29 47.0972 194.73 46.7372C193.17 46.3772 191.61 46.1972 190.05 46.1972C187.53 46.1972 185.65 46.6172 184.41 47.4572C183.17 48.2572 182.55 49.2972 182.55 50.5772C182.55 51.6572 182.91 52.4972 183.63 53.0972C184.39 53.6572 185.35 54.0972 186.51 54.4172C187.71 54.7372 189.03 55.0172 190.47 55.2572C191.91 55.4572 193.35 55.7372 194.79 56.0972C196.23 56.4172 197.53 56.8772 198.69 57.4772C199.89 58.0772 200.85 58.9172 201.57 59.9972C202.33 61.0772 202.71 62.5172 202.71 64.3172C202.71 66.2372 202.15 67.8972 201.03 69.2972C199.91 70.6972 198.33 71.7972 196.29 72.5972C194.25 73.3572 191.81 73.7372 188.97 73.7372ZM224.388 73.7372C220.988 73.7372 217.988 73.0372 215.388 71.6372C212.828 70.2372 210.828 68.3172 209.388 65.8772C207.988 63.4372 207.288 60.6372 207.288 57.4772C207.288 54.3172 207.968 51.5172 209.328 49.0772C210.728 46.6372 212.628 44.7372 215.028 43.3772C217.468 41.9772 220.208 41.2772 223.248 41.2772C226.328 41.2772 229.048 41.9572 231.408 43.3172C233.768 44.6772 235.608 46.5972 236.928 49.0772C238.288 51.5172 238.968 54.3772 238.968 57.6572C238.968 57.8972 238.948 58.1772 238.908 58.4972C238.908 58.8172 238.888 59.1172 238.848 59.3972H211.788V55.2572H235.848L233.508 56.6972C233.548 54.6572 233.128 52.8372 232.248 51.2372C231.368 49.6372 230.148 48.3972 228.588 47.5172C227.068 46.5972 225.288 46.1372 223.248 46.1372C221.248 46.1372 219.468 46.5972 217.908 47.5172C216.348 48.3972 215.128 49.6572 214.248 51.2972C213.368 52.8972 212.928 54.7372 212.928 56.8172V57.7772C212.928 59.8972 213.408 61.7972 214.368 63.4772C215.368 65.1172 216.748 66.3972 218.508 67.3172C220.268 68.2372 222.288 68.6972 224.568 68.6972C226.448 68.6972 228.148 68.3772 229.668 67.7372C231.228 67.0972 232.588 66.1372 233.748 64.8572L236.928 68.5772C235.488 70.2572 233.688 71.5372 231.528 72.4172C229.408 73.2972 227.028 73.7372 224.388 73.7372ZM264.56 73.3772V31.3772H270.56V73.3772H264.56ZM299.595 41.2772C302.195 41.2772 304.475 41.7772 306.435 42.7772C308.435 43.7772 309.995 45.2972 311.115 47.3372C312.235 49.3772 312.795 51.9572 312.795 55.0772V73.3772H307.035V55.7372C307.035 52.6572 306.275 50.3372 304.755 48.7772C303.275 47.2172 301.175 46.4372 298.455 46.4372C296.415 46.4372 294.635 46.8372 293.115 47.6372C291.595 48.4372 290.415 49.6172 289.575 51.1772C288.775 52.7372 288.375 54.6772 288.375 56.9972V73.3772H282.615V41.5772H288.135V50.1572L287.235 47.8772C288.275 45.7972 289.875 44.1772 292.035 43.0172C294.195 41.8572 296.715 41.2772 299.595 41.2772ZM332.895 73.7372C330.255 73.7372 327.735 73.3772 325.335 72.6572C322.975 71.9372 321.115 71.0572 319.755 70.0172L322.155 65.4572C323.515 66.3772 325.195 67.1572 327.195 67.7972C329.195 68.4372 331.235 68.7572 333.315 68.7572C335.995 68.7572 337.915 68.3772 339.075 67.6172C340.275 66.8572 340.875 65.7972 340.875 64.4372C340.875 63.4372 340.515 62.6572 339.795 62.0972C339.075 61.5372 338.115 61.1172 336.915 60.8372C335.755 60.5572 334.455 60.3172 333.015 60.1172C331.575 59.8772 330.135 59.5972 328.695 59.2772C327.255 58.9172 325.935 58.4372 324.735 57.8372C323.535 57.1972 322.575 56.3372 321.855 55.2572C321.135 54.1372 320.775 52.6572 320.775 50.8172C320.775 48.8972 321.315 47.2172 322.395 45.7772C323.475 44.3372 324.995 43.2372 326.955 42.4772C328.955 41.6772 331.315 41.2772 334.035 41.2772C336.115 41.2772 338.215 41.5372 340.335 42.0572C342.495 42.5372 344.255 43.2372 345.615 44.1572L343.155 48.7172C341.715 47.7572 340.215 47.0972 338.655 46.7372C337.095 46.3772 335.535 46.1972 333.975 46.1972C331.455 46.1972 329.575 46.6172 328.335 47.4572C327.095 48.2572 326.475 49.2972 326.475 50.5772C326.475 51.6572 326.835 52.4972 327.555 53.0972C328.315 53.6572 329.275 54.0972 330.435 54.4172C331.635 54.7372 332.955 55.0172 334.395 55.2572C335.835 55.4572 337.275 55.7372 338.715 56.0972C340.155 56.4172 341.455 56.8772 342.615 57.4772C343.815 58.0772 344.775 58.9172 345.495 59.9972C346.255 61.0772 346.635 62.5172 346.635 64.3172C346.635 66.2372 346.075 67.8972 344.955 69.2972C343.835 70.6972 342.255 71.7972 340.215 72.5972C338.175 73.3572 335.735 73.7372 332.895 73.7372ZM354.153 73.3772V41.5772H359.913V73.3772H354.153ZM357.033 35.4572C355.913 35.4572 354.973 35.0972 354.213 34.3772C353.493 33.6572 353.133 32.7772 353.133 31.7372C353.133 30.6572 353.493 29.7572 354.213 29.0372C354.973 28.3172 355.913 27.9572 357.033 27.9572C358.153 27.9572 359.073 28.3172 359.793 29.0372C360.553 29.7172 360.933 30.5772 360.933 31.6172C360.933 32.6972 360.573 33.6172 359.853 34.3772C359.133 35.0972 358.193 35.4572 357.033 35.4572ZM385.151 85.3772C382.231 85.3772 379.391 84.9572 376.631 84.1172C373.911 83.3172 371.691 82.1572 369.971 80.6372L372.731 76.1972C374.211 77.4772 376.031 78.4772 378.191 79.1972C380.351 79.9572 382.611 80.3372 384.971 80.3372C388.731 80.3372 391.491 79.4572 393.251 77.6972C395.011 75.9372 395.891 73.2572 395.891 69.6572V62.9372L396.491 56.6372L396.191 50.2772V41.5772H401.651V69.0572C401.651 74.6572 400.251 78.7772 397.451 81.4172C394.651 84.0572 390.551 85.3772 385.151 85.3772ZM384.431 72.0572C381.351 72.0572 378.591 71.4172 376.151 70.1372C373.751 68.8172 371.831 66.9972 370.391 64.6772C368.991 62.3572 368.291 59.6772 368.291 56.6372C368.291 53.5572 368.991 50.8772 370.391 48.5972C371.831 46.2772 373.751 44.4772 376.151 43.1972C378.591 41.9172 381.351 41.2772 384.431 41.2772C387.151 41.2772 389.631 41.8372 391.871 42.9572C394.111 44.0372 395.891 45.7172 397.211 47.9972C398.571 50.2772 399.251 53.1572 399.251 56.6372C399.251 60.0772 398.571 62.9372 397.211 65.2172C395.891 67.4972 394.111 69.2172 391.871 70.3772C389.631 71.4972 387.151 72.0572 384.431 72.0572ZM385.091 67.0172C387.211 67.0172 389.091 66.5772 390.731 65.6972C392.371 64.8172 393.651 63.5972 394.571 62.0372C395.531 60.4772 396.011 58.6772 396.011 56.6372C396.011 54.5972 395.531 52.7972 394.571 51.2372C393.651 49.6772 392.371 48.4772 390.731 47.6372C389.091 46.7572 387.211 46.3172 385.091 46.3172C382.971 46.3172 381.071 46.7572 379.391 47.6372C377.751 48.4772 376.451 49.6772 375.491 51.2372C374.571 52.7972 374.111 54.5972 374.111 56.6372C374.111 58.6772 374.571 60.4772 375.491 62.0372C376.451 63.5972 377.751 64.8172 379.391 65.6972C381.071 66.5772 382.971 67.0172 385.091 67.0172ZM429.957 41.2772C432.557 41.2772 434.837 41.7772 436.797 42.7772C438.797 43.7772 440.357 45.2972 441.477 47.3372C442.597 49.3772 443.157 51.9572 443.157 55.0772V73.3772H437.397V55.7372C437.397 52.6572 436.637 50.3372 435.117 48.7772C433.637 47.2172 431.537 46.4372 428.817 46.4372C426.777 46.4372 424.997 46.8372 423.477 47.6372C421.957 48.4372 420.777 49.6172 419.937 51.1772C419.137 52.7372 418.737 54.6772 418.737 56.9972V73.3772H412.977V28.8572H418.737V50.1572L417.597 47.8772C418.637 45.7972 420.237 44.1772 422.397 43.0172C424.557 41.8572 427.077 41.2772 429.957 41.2772ZM465.057 73.7372C461.857 73.7372 459.377 72.8772 457.617 71.1572C455.857 69.4372 454.977 66.9772 454.977 63.7772V34.6172H460.737V63.5372C460.737 65.2572 461.157 66.5772 461.997 67.4972C462.877 68.4172 464.117 68.8772 465.717 68.8772C467.517 68.8772 469.017 68.3772 470.217 67.3772L472.017 71.5172C471.137 72.2772 470.077 72.8372 468.837 73.1972C467.637 73.5572 466.377 73.7372 465.057 73.7372ZM449.577 46.3172V41.5772H469.857V46.3172H449.577Z" fill="white"/>
</svg>
