<svg width="202" height="46" viewBox="0 0 202 46" fill="none" xmlns="http://www.w3.org/2000/svg">
<path fill-rule="evenodd" clip-rule="evenodd" d="M9.83002 30.3327L12.478 25.0885L8 18.3447V29.2318L9.83002 30.3327ZM10.5796 30.7792L14.1307 32.8888L15.6541 29.8718L13.0318 25.9227L10.5796 30.7792ZM14.8808 33.3344L18.7915 35.6576L19.2966 35.3575L16.208 30.706L14.8808 33.3344ZM20.0481 34.9111L24.6207 32.1947L27.0261 27.4309L21.8203 19.591L16.6606 29.8095L20.0481 34.9111ZM26.0136 31.3672L28.614 29.8224L27.5799 28.2651L26.0136 31.3672ZM29.3655 29.3759L29.606 29.2331V24.2526L28.0326 27.3686L29.3655 29.3759ZM29.6051 22.3233L29.5934 16.4039L24.8519 13.5871L22.273 18.6945L27.4787 26.5344L29.6051 22.3233ZM24.1018 13.1415L20.5507 11.0319L19.0969 13.9112L21.7191 17.8603L24.1018 13.1415ZM19.8006 10.5863L18.8145 10.0005L17.1548 10.9864L18.543 13.0771L19.8006 10.5863ZM16.4033 11.4329L8 16.425V16.7665L12.9306 24.192L18.0903 13.9735L16.4033 11.4329ZM16.1068 28.9753L21.2664 18.7568L18.6442 14.8077L13.4845 25.0262L16.1068 28.9753Z" fill="#EBAF44"/>
<path d="M40.602 31.3291V14.5291H47.682C49.474 14.5291 51.05 14.8811 52.41 15.5851C53.786 16.2891 54.85 17.2731 55.602 18.5371C56.37 19.8011 56.754 21.2651 56.754 22.9291C56.754 24.5931 56.37 26.0571 55.602 27.3211C54.85 28.5851 53.786 29.5691 52.41 30.2731C51.05 30.9771 49.474 31.3291 47.682 31.3291H40.602ZM43.002 29.2411H47.538C48.93 29.2411 50.13 28.9771 51.138 28.4491C52.162 27.9211 52.954 27.1851 53.514 26.2411C54.074 25.2811 54.354 24.1771 54.354 22.9291C54.354 21.6651 54.074 20.5611 53.514 19.6171C52.954 18.6731 52.162 17.9371 51.138 17.4091C50.13 16.8811 48.93 16.6171 47.538 16.6171H43.002V29.2411ZM65.6772 31.4731C64.3972 31.4731 63.2612 31.1931 62.2692 30.6331C61.2772 30.0731 60.4932 29.3051 59.9172 28.3291C59.3412 27.3371 59.0532 26.2171 59.0532 24.9691C59.0532 23.7051 59.3412 22.5851 59.9172 21.6091C60.4932 20.6331 61.2772 19.8731 62.2692 19.3291C63.2612 18.7691 64.3972 18.4891 65.6772 18.4891C66.9412 18.4891 68.0692 18.7691 69.0612 19.3291C70.0692 19.8731 70.8532 20.6331 71.4132 21.6091C71.9892 22.5691 72.2772 23.6891 72.2772 24.9691C72.2772 26.2331 71.9892 27.3531 71.4132 28.3291C70.8532 29.3051 70.0692 30.0731 69.0612 30.6331C68.0692 31.1931 66.9412 31.4731 65.6772 31.4731ZM65.6772 29.4571C66.4932 29.4571 67.2212 29.2731 67.8612 28.9051C68.5172 28.5371 69.0292 28.0171 69.3972 27.3451C69.7652 26.6571 69.9492 25.8651 69.9492 24.9691C69.9492 24.0571 69.7652 23.2731 69.3972 22.6171C69.0292 21.9451 68.5172 21.4251 67.8612 21.0571C67.2212 20.6891 66.4932 20.5051 65.6772 20.5051C64.8612 20.5051 64.1332 20.6891 63.4932 21.0571C62.8532 21.4251 62.3412 21.9451 61.9572 22.6171C61.5732 23.2731 61.3812 24.0571 61.3812 24.9691C61.3812 25.8651 61.5732 26.6571 61.9572 27.3451C62.3412 28.0171 62.8532 28.5371 63.4932 28.9051C64.1332 29.2731 64.8612 29.4571 65.6772 29.4571ZM79.2466 31.4731C78.1906 31.4731 77.1826 31.3291 76.2226 31.0411C75.2786 30.7531 74.5346 30.4011 73.9906 29.9851L74.9506 28.1611C75.4946 28.5291 76.1666 28.8411 76.9666 29.0971C77.7666 29.3531 78.5826 29.4811 79.4146 29.4811C80.4866 29.4811 81.2546 29.3291 81.7186 29.0251C82.1986 28.7211 82.4386 28.2971 82.4386 27.7531C82.4386 27.3531 82.2946 27.0411 82.0066 26.8171C81.7186 26.5931 81.3346 26.4251 80.8546 26.3131C80.3906 26.2011 79.8706 26.1051 79.2946 26.0251C78.7186 25.9291 78.1426 25.8171 77.5666 25.6891C76.9906 25.5451 76.4626 25.3531 75.9826 25.1131C75.5026 24.8571 75.1186 24.5131 74.8306 24.0811C74.5426 23.6331 74.3986 23.0411 74.3986 22.3051C74.3986 21.5371 74.6146 20.8651 75.0466 20.2891C75.4786 19.7131 76.0866 19.2731 76.8706 18.9691C77.6706 18.6491 78.6146 18.4891 79.7026 18.4891C80.5346 18.4891 81.3746 18.5931 82.2226 18.8011C83.0866 18.9931 83.7906 19.2731 84.3346 19.6411L83.3506 21.4651C82.7746 21.0811 82.1746 20.8171 81.5506 20.6731C80.9266 20.5291 80.3026 20.4571 79.6786 20.4571C78.6706 20.4571 77.9186 20.6251 77.4226 20.9611C76.9266 21.2811 76.6786 21.6971 76.6786 22.2091C76.6786 22.6411 76.8226 22.9771 77.1106 23.2171C77.4146 23.4411 77.7986 23.6171 78.2626 23.7451C78.7426 23.8731 79.2706 23.9851 79.8466 24.0811C80.4226 24.1611 80.9986 24.2731 81.5746 24.4171C82.1506 24.5451 82.6706 24.7291 83.1346 24.9691C83.6146 25.2091 83.9986 25.5451 84.2866 25.9771C84.5906 26.4091 84.7426 26.9851 84.7426 27.7051C84.7426 28.4731 84.5186 29.1371 84.0706 29.6971C83.6226 30.2571 82.9906 30.6971 82.1746 31.0171C81.3586 31.3211 80.3826 31.4731 79.2466 31.4731ZM93.4211 31.4731C92.0611 31.4731 90.8611 31.1931 89.8211 30.6331C88.7971 30.0731 87.9971 29.3051 87.4211 28.3291C86.8611 27.3531 86.5811 26.2331 86.5811 24.9691C86.5811 23.7051 86.8531 22.5851 87.3971 21.6091C87.9571 20.6331 88.7171 19.8731 89.6771 19.3291C90.6531 18.7691 91.7491 18.4891 92.9651 18.4891C94.1971 18.4891 95.2851 18.7611 96.2291 19.3051C97.1731 19.8491 97.9091 20.6171 98.4371 21.6091C98.9811 22.5851 99.2531 23.7291 99.2531 25.0411C99.2531 25.1371 99.2451 25.2491 99.2291 25.3771C99.2291 25.5051 99.2211 25.6251 99.2051 25.7371H88.3811V24.0811H98.0051L97.0691 24.6571C97.0851 23.8411 96.9171 23.1131 96.5651 22.4731C96.2131 21.8331 95.7251 21.3371 95.1011 20.9851C94.4931 20.6171 93.7811 20.4331 92.9651 20.4331C92.1651 20.4331 91.4531 20.6171 90.8291 20.9851C90.2051 21.3371 89.7171 21.8411 89.3651 22.4971C89.0131 23.1371 88.8371 23.8731 88.8371 24.7051V25.0891C88.8371 25.9371 89.0291 26.6971 89.4131 27.3691C89.8131 28.0251 90.3651 28.5371 91.0691 28.9051C91.7731 29.2731 92.5811 29.4571 93.4931 29.4571C94.2451 29.4571 94.9251 29.3291 95.5331 29.0731C96.1571 28.8171 96.7011 28.4331 97.1651 27.9211L98.4371 29.4091C97.8611 30.0811 97.1411 30.5931 96.2771 30.9451C95.4291 31.2971 94.4771 31.4731 93.4211 31.4731ZM109.504 31.3291V14.5291H111.904V31.3291H109.504ZM123.524 18.4891C124.564 18.4891 125.476 18.6891 126.26 19.0891C127.06 19.4891 127.684 20.0971 128.132 20.9131C128.58 21.7291 128.804 22.7611 128.804 24.0091V31.3291H126.5V24.2731C126.5 23.0411 126.196 22.1131 125.588 21.4891C124.996 20.8651 124.156 20.5531 123.068 20.5531C122.252 20.5531 121.54 20.7131 120.932 21.0331C120.324 21.3531 119.852 21.8251 119.516 22.4491C119.196 23.0731 119.036 23.8491 119.036 24.7771V31.3291H116.732V18.6091H118.94V22.0411L118.58 21.1291C118.996 20.2971 119.636 19.6491 120.5 19.1851C121.364 18.7211 122.372 18.4891 123.524 18.4891ZM136.851 31.4731C135.795 31.4731 134.787 31.3291 133.827 31.0411C132.883 30.7531 132.139 30.4011 131.595 29.9851L132.555 28.1611C133.099 28.5291 133.771 28.8411 134.571 29.0971C135.371 29.3531 136.187 29.4811 137.019 29.4811C138.091 29.4811 138.859 29.3291 139.323 29.0251C139.803 28.7211 140.043 28.2971 140.043 27.7531C140.043 27.3531 139.899 27.0411 139.611 26.8171C139.323 26.5931 138.939 26.4251 138.459 26.3131C137.995 26.2011 137.475 26.1051 136.899 26.0251C136.323 25.9291 135.747 25.8171 135.171 25.6891C134.595 25.5451 134.067 25.3531 133.587 25.1131C133.107 24.8571 132.723 24.5131 132.435 24.0811C132.147 23.6331 132.003 23.0411 132.003 22.3051C132.003 21.5371 132.219 20.8651 132.651 20.2891C133.083 19.7131 133.691 19.2731 134.475 18.9691C135.275 18.6491 136.219 18.4891 137.307 18.4891C138.139 18.4891 138.979 18.5931 139.827 18.8011C140.691 18.9931 141.395 19.2731 141.939 19.6411L140.955 21.4651C140.379 21.0811 139.779 20.8171 139.155 20.6731C138.531 20.5291 137.907 20.4571 137.283 20.4571C136.275 20.4571 135.523 20.6251 135.027 20.9611C134.531 21.2811 134.283 21.6971 134.283 22.2091C134.283 22.6411 134.427 22.9771 134.715 23.2171C135.019 23.4411 135.403 23.6171 135.867 23.7451C136.347 23.8731 136.875 23.9851 137.451 24.0811C138.027 24.1611 138.603 24.2731 139.179 24.4171C139.755 24.5451 140.275 24.7291 140.739 24.9691C141.219 25.2091 141.603 25.5451 141.891 25.9771C142.195 26.4091 142.347 26.9851 142.347 27.7051C142.347 28.4731 142.123 29.1371 141.675 29.6971C141.227 30.2571 140.595 30.6971 139.779 31.0171C138.963 31.3211 137.987 31.4731 136.851 31.4731ZM145.362 31.3291V18.6091H147.666V31.3291H145.362ZM146.514 16.1611C146.066 16.1611 145.69 16.0171 145.386 15.7291C145.098 15.4411 144.954 15.0891 144.954 14.6731C144.954 14.2411 145.098 13.8811 145.386 13.5931C145.69 13.3051 146.066 13.1611 146.514 13.1611C146.962 13.1611 147.33 13.3051 147.618 13.5931C147.922 13.8651 148.074 14.2091 148.074 14.6251C148.074 15.0571 147.93 15.4251 147.642 15.7291C147.354 16.0171 146.978 16.1611 146.514 16.1611ZM157.768 36.1291C156.6 36.1291 155.464 35.9611 154.36 35.6251C153.272 35.3051 152.384 34.8411 151.696 34.2331L152.8 32.4571C153.392 32.9691 154.12 33.3691 154.984 33.6571C155.848 33.9611 156.752 34.1131 157.696 34.1131C159.2 34.1131 160.304 33.7611 161.008 33.0571C161.712 32.3531 162.064 31.2811 162.064 29.8411V27.1531L162.304 24.6331L162.184 22.0891V18.6091H164.368V29.6011C164.368 31.8411 163.808 33.4891 162.688 34.5451C161.568 35.6011 159.928 36.1291 157.768 36.1291ZM157.48 30.8011C156.248 30.8011 155.144 30.5451 154.168 30.0331C153.208 29.5051 152.44 28.7771 151.864 27.8491C151.304 26.9211 151.024 25.8491 151.024 24.6331C151.024 23.4011 151.304 22.3291 151.864 21.4171C152.44 20.4891 153.208 19.7691 154.168 19.2571C155.144 18.7451 156.248 18.4891 157.48 18.4891C158.568 18.4891 159.56 18.7131 160.456 19.1611C161.352 19.5931 162.064 20.2651 162.592 21.1771C163.136 22.0891 163.408 23.2411 163.408 24.6331C163.408 26.0091 163.136 27.1531 162.592 28.0651C162.064 28.9771 161.352 29.6651 160.456 30.1291C159.56 30.5771 158.568 30.8011 157.48 30.8011ZM157.744 28.7851C158.592 28.7851 159.344 28.6091 160 28.2571C160.656 27.9051 161.168 27.4171 161.536 26.7931C161.92 26.1691 162.112 25.4491 162.112 24.6331C162.112 23.8171 161.92 23.0971 161.536 22.4731C161.168 21.8491 160.656 21.3691 160 21.0331C159.344 20.6811 158.592 20.5051 157.744 20.5051C156.896 20.5051 156.136 20.6811 155.464 21.0331C154.808 21.3691 154.288 21.8491 153.904 22.4731C153.536 23.0971 153.352 23.8171 153.352 24.6331C153.352 25.4491 153.536 26.1691 153.904 26.7931C154.288 27.4171 154.808 27.9051 155.464 28.2571C156.136 28.6091 156.896 28.7851 157.744 28.7851ZM175.697 18.4891C176.737 18.4891 177.649 18.6891 178.433 19.0891C179.233 19.4891 179.857 20.0971 180.305 20.9131C180.753 21.7291 180.977 22.7611 180.977 24.0091V31.3291H178.673V24.2731C178.673 23.0411 178.369 22.1131 177.761 21.4891C177.169 20.8651 176.329 20.5531 175.241 20.5531C174.425 20.5531 173.713 20.7131 173.105 21.0331C172.497 21.3531 172.025 21.8251 171.689 22.4491C171.369 23.0731 171.209 23.8491 171.209 24.7771V31.3291H168.905V13.5211H171.209V22.0411L170.753 21.1291C171.169 20.2971 171.809 19.6491 172.673 19.1851C173.537 18.7211 174.545 18.4891 175.697 18.4891ZM189.744 31.4731C188.464 31.4731 187.472 31.1291 186.768 30.4411C186.064 29.7531 185.712 28.7691 185.712 27.4891V15.8251H188.016V27.3931C188.016 28.0811 188.184 28.6091 188.52 28.9771C188.872 29.3451 189.368 29.5291 190.008 29.5291C190.728 29.5291 191.328 29.3291 191.808 28.9291L192.528 30.5851C192.176 30.8891 191.752 31.1131 191.256 31.2571C190.776 31.4011 190.272 31.4731 189.744 31.4731ZM183.552 20.5051V18.6091H191.664V20.5051H183.552Z" fill="white"/>
</svg>
